<svg xmlns="http://www.w3.org/2000/svg" xmlns:xlink="http://www.w3.org/1999/xlink" width="1200" zoomAndPan="magnify" viewBox="0 0 900 899.99999" height="1200" preserveAspectRatio="xMidYMid meet" version="1.0"><defs><g/><clipPath id="b75bf181df"><path d="M 128 149 L 761 149 L 761 774 L 128 774 Z M 128 149 " clip-rule="nonzero"/></clipPath><clipPath id="b06b3cae6a"><path d="M 112.351562 404.378906 L 523.195312 133.917969 L 776.792969 519.144531 L 365.945312 789.605469 Z M 112.351562 404.378906 " clip-rule="nonzero"/></clipPath><clipPath id="1d7ef52676"><path d="M 146.929688 381.613281 L 488.617188 156.683594 C 507.714844 144.109375 533.390625 149.398438 545.960938 168.496094 L 754.027344 484.566406 C 766.597656 503.664062 761.308594 529.335938 742.210938 541.910156 L 400.523438 766.839844 C 381.425781 779.414062 355.753906 774.121094 343.179688 755.023438 L 135.113281 438.957031 C 122.542969 419.859375 127.832031 394.1875 146.929688 381.613281 Z M 146.929688 381.613281 " clip-rule="nonzero"/></clipPath><clipPath id="782e6f9f75"><path d="M 538.882812 517.085938 L 595.5625 517.085938 L 595.5625 573.769531 L 538.882812 573.769531 Z M 538.882812 517.085938 " clip-rule="nonzero"/></clipPath><clipPath id="6b2a2ef450"><path d="M 567.222656 517.085938 C 551.570312 517.085938 538.882812 529.777344 538.882812 545.429688 C 538.882812 561.078125 551.570312 573.769531 567.222656 573.769531 C 582.875 573.769531 595.5625 561.078125 595.5625 545.429688 C 595.5625 529.777344 582.875 517.085938 567.222656 517.085938 Z M 567.222656 517.085938 " clip-rule="nonzero"/></clipPath></defs><g clip-path="url(#b75bf181df)"><g clip-path="url(#b06b3cae6a)"><g clip-path="url(#1d7ef52676)"><path fill="#020202" d="M 112.351562 404.378906 L 523.195312 133.917969 L 776.792969 519.144531 L 365.945312 789.605469 Z M 112.351562 404.378906 " fill-opacity="1" fill-rule="nonzero"/></g></g></g><g clip-path="url(#782e6f9f75)"><g clip-path="url(#6b2a2ef450)"><path fill="#f4b618" d="M 538.882812 517.085938 L 595.5625 517.085938 L 595.5625 573.769531 L 538.882812 573.769531 Z M 538.882812 517.085938 " fill-opacity="1" fill-rule="nonzero"/></g></g><g fill="#ffffff" fill-opacity="1"><g transform="translate(385.295384, 568.429031)"><g><path d="M 114.84375 -39.6875 L 125.71875 -8.75 C 121.1875 -5.03125 115.5 -2.113281 108.65625 0 C 101.8125 2.113281 94.066406 3.171875 85.421875 3.171875 C 67.410156 3.171875 53.722656 -1.734375 44.359375 -11.546875 C 35.003906 -21.359375 30.328125 -35.617188 30.328125 -54.328125 L 30.328125 -133.40625 L 4.984375 -133.40625 L 4.984375 -166.609375 L 30.328125 -166.609375 L 30.328125 -199.0625 L 72.140625 -205.84375 L 72.140625 -166.609375 L 119.375 -166.609375 L 119.375 -133.40625 L 72.140625 -133.40625 L 72.140625 -57.34375 C 72.140625 -49.09375 73.847656 -43.082031 77.265625 -39.3125 C 80.691406 -35.539062 85.671875 -33.65625 92.203125 -33.65625 C 99.648438 -33.65625 106.140625 -35.664062 111.671875 -39.6875 Z M 114.84375 -39.6875 "/></g></g></g></svg>