<svg xmlns="http://www.w3.org/2000/svg" xmlns:xlink="http://www.w3.org/1999/xlink" width="1200" zoomAndPan="magnify" viewBox="0 0 900 899.99999" height="1200" preserveAspectRatio="xMidYMid meet" version="1.0"><defs><g/><clipPath id="5df1eed021"><path d="M 41.398438 0 L 858.601562 0 C 881.464844 0 900 18.535156 900 41.398438 L 900 858.601562 C 900 881.464844 881.464844 900 858.601562 900 L 41.398438 900 C 18.535156 900 0 881.464844 0 858.601562 L 0 41.398438 C 0 18.535156 18.535156 0 41.398438 0 Z M 41.398438 0 " clip-rule="nonzero"/></clipPath><clipPath id="4d018e2925"><path d="M 584.960938 560.863281 L 689.417969 560.863281 L 689.417969 665.320312 L 584.960938 665.320312 Z M 584.960938 560.863281 " clip-rule="nonzero"/></clipPath><clipPath id="e1caec3fda"><path d="M 637.1875 560.863281 C 608.34375 560.863281 584.960938 584.246094 584.960938 613.089844 C 584.960938 641.933594 608.34375 665.320312 637.1875 665.320312 C 666.03125 665.320312 689.417969 641.933594 689.417969 613.089844 C 689.417969 584.246094 666.03125 560.863281 637.1875 560.863281 Z M 637.1875 560.863281 " clip-rule="nonzero"/></clipPath></defs><g clip-path="url(#5df1eed021)"><rect x="-90" width="1080" fill="#020202" y="-89.999999" height="1079.999988" fill-opacity="1"/></g><g clip-path="url(#4d018e2925)"><g clip-path="url(#e1caec3fda)"><path fill="#f4b618" d="M 584.960938 560.863281 L 689.417969 560.863281 L 689.417969 665.320312 L 584.960938 665.320312 Z M 584.960938 560.863281 " fill-opacity="1" fill-rule="nonzero"/></g></g><g fill="#ffffff" fill-opacity="1"><g transform="translate(345.38653, 643.124986)"><g><path d="M 185.796875 -64.203125 L 203.375 -14.15625 C 196.050781 -8.132812 186.851562 -3.414062 175.78125 0 C 164.71875 3.414062 152.1875 5.125 138.1875 5.125 C 109.050781 5.125 86.914062 -2.804688 71.78125 -18.671875 C 56.644531 -34.546875 49.078125 -57.617188 49.078125 -87.890625 L 49.078125 -215.828125 L 8.0625 -215.828125 L 8.0625 -269.53125 L 49.078125 -269.53125 L 49.078125 -322.015625 L 116.703125 -333.015625 L 116.703125 -269.53125 L 193.109375 -269.53125 L 193.109375 -215.828125 L 116.703125 -215.828125 L 116.703125 -92.78125 C 116.703125 -79.425781 119.46875 -69.695312 125 -63.59375 C 130.53125 -57.488281 138.585938 -54.4375 149.171875 -54.4375 C 161.210938 -54.4375 171.710938 -57.691406 180.671875 -64.203125 Z M 185.796875 -64.203125 "/></g></g></g></svg>